<svg xmlns="http://www.w3.org/2000/svg" viewBox="0 -659 786 602">
  <path transform="scale(1,-1)" d="M353 659Q340 659 322 649Q261 609 77 481Q30 449 11 386Q3 362 1 330Q0 311 0 275V262Q0 213 8 179Q8 179 8 179Q24 114 69 84Q109 58 174 58Q394 57 613 58Q639 58 654 76Q668 93 668 121Q668 136 663 153H679Q705 153 719 167Q732 178 738 202Q744 232 732 255Q759 258 773 275Q786 291 786 321Q786 350 772 370Q764 380 752 387Q740 393 726 393H705Q711 407 711 424Q711 453 696 472Q688 483 676 489Q664 495 650 495L333 494L338 499Q344 506 348 509L362 523Q381 544 387 551Q402 570 404 593Q406 616 393 634Q387 644 378 650Q369 656 359 658L354 659ZM353 624Q353 624 354 624Q354 624 354 623Q359 623 364 615Q369 608 368 595Q367 582 360 573Q352 563 323 534L311 522Q289 501 284 495Q279 488 279 482Q279 479 281 473Q283 468 286 465Q288 462 295 461Q298 460 300 460H312Q387 459 537 460H650Q656 460 660 458Q664 456 668 451Q676 439 676 424Q676 408 669 399Q665 393 650 393H408V358H726Q732 358 736 356Q740 354 744 349Q751 339 751 321Q751 302 746 296Q741 290 726 290H408V255H679Q686 255 691 252Q695 249 699 243Q707 230 704 209Q701 197 696 193Q690 188 679 188H408V153H613Q618 153 621 152Q624 150 627 146Q633 138 633 121Q633 106 627 98Q625 95 622 94Q619 93 613 93Q394 92 175 93Q118 93 88 113Q55 135 42 187V188Q35 218 35 262V272Q35 308 36 326Q38 355 44 376Q61 427 97 452Q292 587 341 619Q348 623 352 623Q352 624 353 624Z" fill="currentColor"/>
</svg>
