<svg xmlns="http://www.w3.org/2000/svg" viewBox="0 -802 903 903">
  <path transform="scale(1,-1)" d="M451 802Q436 802 425 791L10 376Q0 366 0 351Q0 335 10 324L425 -91Q436 -101 452 -101Q467 -101 477 -91L892 324Q903 335 903 351Q903 366 892 376L477 791Q466 802 451 802ZM451 740 841 350 451 -40 61 350ZM451 560Q394 560 346 532Q297 504 269 456Q241 407 241 350Q241 293 269 245Q297 196 346 168Q394 140 451 140Q508 140 557 168Q605 196 633 245Q661 293 661 350Q661 407 633 456Q605 504 557 532Q508 560 451 560ZM451 537Q502 537 545 512Q588 487 613 444Q638 401 638 350Q638 299 613 256Q588 213 545 188Q502 163 451 163Q400 163 357 188Q314 213 289 256Q264 299 264 350Q264 401 289 444Q314 487 357 512Q400 537 451 537Z" fill="currentColor"/>
</svg>
