<svg xmlns="http://www.w3.org/2000/svg" viewBox="0 -745 960 790">
  <path transform="scale(1,-1)" d="M195 745Q142 745 98 719Q53 693 27 649Q0 604 0 551V149Q0 96 27 52Q53 7 98 -19Q142 -45 195 -45H765Q818 -45 863 -19Q908 7 934 52Q960 96 960 149V551Q960 604 934 649Q908 693 863 719Q818 745 765 745ZM195 685H765Q802 685 833 667Q864 649 882 619Q900 588 900 551V149Q900 112 882 82Q864 51 833 33Q802 15 765 15H195Q158 15 127 33Q96 51 78 82Q60 112 60 149V551Q60 588 78 619Q96 649 127 667Q158 685 195 685ZM231 635Q231 618 231 600Q218 596 204 588L179 613L133 566L157 542Q149 524 146 514H111V448H147Q150 435 164 413V470H133V492H164L166 501Q169 519 180 537L185 545L164 566L179 582L201 560L209 565Q224 576 245 581L253 582V613H276V583H335Q331 587 318 593Q305 598 298 600V635ZM294 571V537Q280 533 266 525L242 550L195 503L220 478Q212 465 209 451H173V385H209Q214 370 221 358L195 333L242 286L268 312Q280 305 295 300V264H361V301Q374 304 389 312L414 287L461 334L435 359Q443 373 447 386L481 387V453L446 452Q443 462 435 480L459 504L412 550L388 526Q378 532 360 537V571ZM316 550H338V519L347 518Q367 514 383 503L391 498L412 519L428 504L407 482L412 475Q423 459 427 439L429 430L459 431V408H429L427 399Q424 379 412 363L407 356L430 334L414 318L392 340L384 335Q368 325 348 320L339 318V286H317V318L308 320Q289 323 272 335L264 339L242 317L226 333L249 355L243 363Q233 379 228 398L226 407H195V429H226L228 438Q233 458 243 474L248 482L226 503L242 519L264 497L271 502Q288 514 307 517L316 519ZM327 469Q307 469 293 455Q278 440 278 420Q278 400 293 385Q307 370 328 370Q348 370 363 385Q377 400 377 420Q377 440 363 455Q348 469 327 469ZM327 447Q339 447 347 439Q355 431 355 420Q355 408 347 400Q339 392 328 392Q316 392 308 400Q300 408 300 420Q300 431 308 439Q316 447 327 447Z" fill="currentColor"/>
</svg>
