<svg xmlns="http://www.w3.org/2000/svg" viewBox="0 -745 960 790">
  <path transform="scale(1,-1)" d="M195 745Q142 745 98 719Q53 693 27 649Q0 604 0 551V149Q0 96 27 52Q53 7 98 -19Q142 -45 195 -45H765Q818 -45 863 -19Q908 7 934 52Q960 96 960 149V551Q960 604 934 649Q908 693 863 719Q818 745 765 745ZM195 685H765Q802 685 833 667Q864 649 882 619Q900 588 900 551V149Q900 112 882 82Q864 51 833 33Q802 15 765 15H195Q158 15 127 33Q96 51 78 82Q60 112 60 149V551Q60 588 78 619Q96 649 127 667Q158 685 195 685ZM285 593 282 591H281Q233 563 211 536Q189 509 189 486Q189 462 204 440Q212 427 235 403Q256 382 265 371Q278 354 279 342Q281 327 268 312Q249 290 212 269L171 244H428L431 246Q477 274 493 296Q513 321 510 345Q508 363 495 382Q487 393 467 414L459 422Q440 442 432 454Q420 471 420 484Q420 500 436 519Q453 540 500 569L541 593ZM292 567H450Q428 550 417 536Q394 510 394 485Q394 463 408 441Q417 428 439 405L441 403Q461 383 470 371Q483 354 484 342Q486 327 473 312Q459 293 420 270H262Q281 286 288 296Q307 319 305 345Q303 364 289 383Q281 394 260 415L254 422Q235 441 226 454Q215 471 215 484Q215 500 231 519Q251 542 292 567ZM255 522V510H378V522ZM250 458V446H378V458ZM308 393V381H432V393ZM326 328V316H454V328Z" fill="currentColor"/>
</svg>
