<svg xmlns="http://www.w3.org/2000/svg" viewBox="0 -530 700 358">
  <path transform="scale(1,-1)" d="M0 330Q26 392 53 431Q88 483 133 510Q167 530 212 523Q250 517 288 493Q312 478 339 457Q355 443 387 416Q446 364 479 343Q508 326 544 336Q577 345 601 372L622 396Q653 430 666 448Q689 478 700 507V342Q672 287 646 253Q610 208 567 188Q529 172 486 180Q446 187 411 212Q383 231 333 277Q300 308 282 322Q253 346 226 360Q199 373 169 370Q139 366 118 346Q91 322 66 286Q51 263 24 217Q8 189 0 175Z" fill="currentColor"/>
</svg>
