<svg xmlns="http://www.w3.org/2000/svg" viewBox="0 -716 879 732">
  <path transform="scale(1,-1)" d="M149 716Q108 716 74 696Q40 676 20 642Q0 608 0 567V133Q0 93 20 59Q40 24 74 4Q108 -16 149 -16H730Q770 -16 805 4Q839 24 859 59Q879 93 879 133V567Q879 608 859 642Q839 676 805 696Q770 716 730 716ZM149 682H730Q761 682 787 667Q813 651 829 625Q844 598 844 567V133Q844 102 829 76Q813 49 787 34Q761 18 730 18H149Q118 18 92 34Q65 49 50 76Q34 102 34 133V567Q34 598 50 625Q65 651 92 667Q118 682 149 682ZM178 633Q140 633 113 606Q85 579 85 541V159Q85 121 113 94Q140 67 178 67H701Q739 67 766 94Q793 121 793 159V541Q793 579 766 606Q739 633 701 633ZM178 599H701Q725 599 742 582Q759 565 759 541V159Q759 135 742 118Q725 101 701 101H178Q153 101 136 118Q119 135 119 159V541Q119 565 136 582Q153 599 178 599Z" fill="currentColor"/>
</svg>
