<svg xmlns="http://www.w3.org/2000/svg" viewBox="0 -802 903 903">
  <path transform="scale(1,-1)" d="M451 802Q436 802 425 791L10 376Q0 366 0 351Q0 335 10 324L425 -91Q436 -101 452 -101Q467 -101 477 -91L892 324Q903 335 903 351Q903 366 892 376L477 791Q466 802 451 802ZM451 740 841 350 451 -40 61 350ZM440 579Q438 579 436 578L432 575L429 571L428 567V373H234L230 372L226 369L223 365L222 361V340L223 335L226 331L230 328L234 327H428V133L429 129L432 125L436 122L440 121H462L466 122L470 125L473 129L474 133V327H668L672 328L676 331L679 335L680 339V361L679 365L676 369L672 372L668 373H474V567L473 571L470 575L466 578L462 579Z" fill="currentColor"/>
</svg>
