<svg xmlns="http://www.w3.org/2000/svg" viewBox="0 -804 918 910">
  <path transform="scale(1,-1)" d="M460 802Q352 804 251 750Q154 697 89 607Q23 514 12 406Q0 314 28 223Q55 132 115 59Q176 -15 259 -55Q338 -95 430 -100Q521 -106 607 -78Q695 -49 761 11Q827 70 867 152Q906 234 912 323Q918 414 888 497Q860 580 801 647Q741 714 662 754Q582 795 495 800H492Q471 802 460 802ZM455 753Q554 756 647 707Q736 659 794 576Q854 490 862 391Q871 303 841 217Q810 131 748 67Q684 0 601 -29Q518 -59 428 -51Q338 -43 261 0Q181 44 131 116Q81 187 65 277Q49 366 70 451Q93 540 150 606Q206 674 287 713Q368 752 455 753ZM463 709Q372 712 287 664Q206 617 156 538Q103 456 102 365Q98 282 134 202Q170 124 235 70Q303 14 385 -2Q462 -18 541 1Q620 19 683 67Q748 117 783 187Q817 257 819 338Q821 419 791 492Q759 568 699 618Q651 661 589 685Q527 709 463 709ZM461 661Q541 663 615 619Q686 577 729 507Q773 433 772 353Q773 278 737 209Q701 139 639 95Q575 48 500 41Q429 32 359 57Q289 81 238 132Q184 185 164 254Q143 320 153 392Q163 464 202 523Q241 584 302 618Q376 661 461 661ZM294 506Q380 437 465 368Q521 414 635 506ZM256 474Q256 334 256 194H666V468L465 305Z" fill="currentColor"/>
</svg>
