<svg xmlns="http://www.w3.org/2000/svg" viewBox="0 -802 918 908">
  <path transform="scale(1,-1)" d="M451 802Q343 802 244 746Q148 692 85 602Q21 508 11 401Q0 309 29 218Q57 127 117 56Q179 -18 263 -57Q342 -95 432 -100Q522 -106 605 -78Q692 -50 756 9Q823 67 863 148Q903 228 911 316Q918 407 889 490Q862 575 802 645Q741 714 660 755Q577 797 488 801ZM460 660Q539 662 611 621Q682 581 725 512Q769 441 770 362Q773 289 741 221Q709 152 651 105Q592 57 521 44Q450 31 378 52Q306 72 251 120Q194 169 169 237Q144 304 152 379Q159 454 198 517Q238 582 302 617Q374 660 460 660ZM460 574Q424 548 353 496L245 418L327 165H593Q616 233 659 369L675 418Q604 470 460 574Z" fill="currentColor"/>
</svg>
