<svg xmlns="http://www.w3.org/2000/svg" viewBox="0 -745 960 790">
  <path transform="scale(1,-1)" d="M195 745Q142 745 98 719Q53 693 27 649Q0 604 0 551V149Q0 96 27 52Q53 7 98 -19Q142 -45 195 -45H765Q818 -45 863 -19Q908 7 934 52Q960 96 960 149V551Q960 604 934 649Q908 693 863 719Q818 745 765 745ZM195 685H765Q802 685 833 667Q864 649 882 619Q900 588 900 551V149Q900 112 882 82Q864 51 833 33Q802 15 765 15H195Q158 15 127 33Q96 51 78 82Q60 112 60 149V551Q60 588 78 619Q96 649 127 667Q158 685 195 685ZM328 645Q318 645 310 639Q287 624 182 552L157 535Q128 514 115 475Q110 460 109 440Q108 428 108 405V398Q108 370 113 346Q113 346 113 346Q124 303 150 282Q176 261 217 261Q354 259 491 261Q508 261 517 272Q525 283 525 299Q525 309 522 318H532Q548 318 557 327Q565 335 569 350Q569 350 569 350Q572 370 565 384Q573 385 580 390Q587 394 591 400Q599 412 599 431Q599 449 590 463Q580 477 561 477H547Q552 489 552 501Q552 519 542 530Q538 536 530 540Q522 543 514 543H316L325 552Q345 572 350 578Q359 590 360 605Q361 619 354 630Q344 644 332 645ZM329 623Q329 623 329 623Q333 623 336 618Q339 613 338 606Q337 598 333 592Q331 589 310 568L285 543Q281 537 284 530Q286 523 293 522L295 521H297Q346 520 446 521H514Q523 521 525 516Q530 511 530 500Q530 488 525 483Q522 477 514 477Q412 477 361 478V456Q428 455 561 455Q568 455 573 449Q577 442 577 431Q577 420 573 412Q570 409 568 408Q566 406 561 406H361V384H532Q539 384 545 376Q550 368 547 354Q546 347 543 344Q539 340 532 340H361V318H491Q497 318 500 315Q503 311 503 299Q503 292 500 286Q497 283 491 282H217Q183 284 164 300Q142 319 135 351Q130 372 130 398Q130 423 131 435Q132 455 136 469Q147 501 169 517L234 561Q306 611 321 621L323 622Q327 623 328 623Z" fill="currentColor"/>
</svg>
