<svg xmlns="http://www.w3.org/2000/svg" viewBox="0 -743 657 807">
  <path transform="scale(1,-1)" d="M260 743Q249 742 231 742Q212 742 206 740Q196 737 193 727Q189 716 189 691V682L17 626Q7 624 4 617Q0 609 4 603Q7 596 17 596H641Q650 596 654 603Q657 609 654 617Q650 624 641 626L473 681V691Q473 717 471 727Q468 737 459 740Q453 742 432 742Q414 742 402 743H331ZM45 539Q35 539 28 532Q20 524 21 513L71 -42Q72 -51 79 -57Q85 -64 95 -64H552Q562 -64 569 -58Q575 -52 577 -42L641 512Q642 523 635 531Q628 539 617 539H331ZM72 490H331H590L531 -15H117ZM192 417Q191 417 189 417Q177 416 170 407Q162 398 164 386L208 66Q210 55 219 48Q228 41 239 42Q250 43 257 53Q263 63 261 74L217 393Q215 403 209 410Q202 416 192 417ZM472 417Q462 417 454 410Q446 403 445 393L401 74Q399 63 406 53Q412 43 424 42Q435 41 444 48Q452 55 454 66L498 386Q500 398 493 407Q485 416 472 417Z" fill="currentColor"/>
</svg>
