<svg xmlns="http://www.w3.org/2000/svg" viewBox="0 -645 689 590">
  <path transform="scale(1,-1)" d="M387 645Q325 645 267 619Q208 592 165 545Q122 498 104 438Q83 373 95 303Q106 233 146 178Q102 186 12 204L0 145Q162 113 242 98Q274 258 289 338Q253 345 230 349L202 204Q168 244 157 298Q145 352 158 406Q170 459 204 499Q238 541 290 564Q341 586 397 585Q452 583 499 556Q544 533 576 491Q607 449 618 398Q629 346 617 297Q606 246 572 204Q537 162 488 138Q439 114 387 115Q374 116 365 106Q356 96 357 83Q357 69 368 63Q378 56 392 55Q400 55 417 57Q429 59 435 59Q496 68 550 104Q603 140 638 194Q672 247 680 309Q689 368 673 427Q656 485 618 533Q580 581 528 609Q461 645 387 645Z" fill="currentColor"/>
</svg>
