<svg xmlns="http://www.w3.org/2000/svg" viewBox="0 -661 660 622">
  <path transform="scale(1,-1)" d="M203 661 199 659 197 658Q113 608 72 560Q34 514 32 468Q32 428 59 388Q75 364 115 323Q151 286 167 265Q190 235 193 214Q194 201 190 189Q185 176 173 160Q146 125 74 82L0 39H458L463 42H464Q541 87 576 131Q610 174 605 219Q601 252 578 286Q563 306 528 342L515 356Q481 390 465 413Q445 443 445 468Q445 497 474 530Q510 572 587 618L660 661ZM216 615H498Q459 586 438 560Q399 514 399 468Q398 428 425 388Q441 364 481 323Q517 286 533 265Q556 235 559 214Q560 201 556 189Q552 175 539 160Q514 127 445 86H162Q193 109 209 131Q244 175 239 219Q235 253 211 287Q196 307 160 344L148 356Q114 391 99 413Q78 443 79 468Q79 497 107 530Q140 569 216 615ZM150 535V514H370V535ZM141 420V398H370V420ZM245 304V283H466V304ZM276 189V167H505V189Z" fill="currentColor"/>
</svg>
