<svg xmlns="http://www.w3.org/2000/svg" viewBox="0 -668 578 625">
  <path transform="scale(1,-1)" d="M289 668Q246 668 210 647Q176 628 157 594Q137 560 137 522Q137 488 153 451Q164 425 180 408Q121 388 81 362Q28 327 2 278L0 274V43H578V274L576 278Q551 326 499 361Q459 387 401 407Q441 448 441 522Q441 560 422 594Q402 628 368 647Q332 668 289 668ZM228 585Q237 585 242 584Q268 583 284 578Q296 574 305 568L309 566Q317 560 323 558Q333 555 349 554Q374 555 388 563L390 565Q394 567 396 568Q406 548 406 522Q406 483 397 461Q385 434 355 416L359 384L387 375L391 355Q392 347 392 332Q391 328 390 324L389 322Q373 306 346 297Q318 288 289 288Q260 288 233 297Q205 306 189 322L188 324Q187 328 186 332Q186 347 187 355L191 375L218 384L221 418Q217 422 214 424Q207 429 199 441Q191 452 185 465Q172 496 172 522Q172 553 187 578L193 580Q205 585 228 585ZM153 360Q153 360 153 359Q150 347 152 329Q154 309 165 298Q187 276 221 264Q253 253 289 253Q325 253 357 264Q391 276 413 298Q420 304 423 313Q425 319 426 329Q429 342 425 359V360Q511 322 543 265V78H460V210H425V78H153V210H118V78H35V265Q67 322 153 360Z" fill="currentColor"/>
</svg>
