<svg xmlns="http://www.w3.org/2000/svg" viewBox="0 -802 909 908">
  <path transform="scale(1,-1)" d="M448 802Q361 802 279 767Q196 732 133 670Q69 607 35 527Q1 446 1 357Q0 267 32 184Q64 101 125 39Q184 -24 265 -60Q345 -97 433 -101Q521 -106 602 -76Q686 -47 753 14Q820 75 859 156Q900 239 903 327Q909 414 879 499Q849 582 790 650Q731 717 653 755Q559 802 452 802ZM460 753Q545 753 625 714Q703 676 760 610Q818 542 840 460Q863 381 852 298Q840 214 797 142Q753 68 685 21Q615 -31 525 -47Q437 -62 351 -40Q263 -18 196 39Q129 92 90 173Q52 252 49 339Q46 429 81 507Q111 580 168 636Q225 692 299 723Q373 754 452 753ZM382 545V420H257V280H382V155H522V280H647V420H522V545ZM405 522H499V397H624V303H499V178H405V304H280V397H405Z" fill="currentColor"/>
</svg>
