<svg xmlns="http://www.w3.org/2000/svg" viewBox="0 -591 704 483">
  <path transform="scale(1,-1)" d="M344 590Q335 589 325 583Q320 580 309 572Q298 564 293 561L223 514Q83 420 13 373Q0 363 3 346Q6 328 21 321L330 114Q340 108 352 111Q363 114 370 124Q377 134 375 145V304Q506 214 658 114Q668 108 679 111Q690 114 697 124Q704 134 702 145V563Q702 575 693 583Q683 590 671 590Q659 590 651 582L375 396Q375 425 375 482Q375 538 374 566Q372 577 363 584Q354 591 344 590ZM315 504Q315 350 315 196L86 350ZM642 504Q642 350 642 196Q536 269 413 350Q536 431 642 504Z" fill="currentColor"/>
</svg>
