<svg xmlns="http://www.w3.org/2000/svg" viewBox="0 -631 591 591">
  <path transform="scale(1,-1)" d="M192 631Q192 603 192 575Q170 569 148 557L108 596L34 522L74 482Q62 463 56 439H0V333H56Q64 308 84 278V369L35 368V404H84L87 418Q93 449 110 475L118 487L84 522L109 547L143 513L155 521Q181 537 213 545L227 548V596H263V548H357Q351 555 329 564Q312 572 298 576V631ZM292 530V475Q265 467 248 456L208 496L134 421L173 381Q162 361 156 338H99V232L156 233Q163 212 174 189L134 149L209 75L250 115Q269 103 294 97V40H399V98Q424 104 443 116L484 76L558 151L517 191Q529 213 535 235H591V340H535Q527 365 516 383L555 422L480 496L441 457Q419 469 397 475L398 530ZM327 495H363L362 447L377 444Q407 438 435 421L446 413L480 447L505 422L472 388L480 376Q498 349 504 319L507 305H556V270L507 269L504 255Q498 224 481 198L473 186L509 151L483 125L448 161L436 153Q409 135 378 129L364 126V75H329V125L314 128Q283 134 256 152L245 160L209 124L183 149L219 184L211 196Q193 223 187 254L184 268L134 267V303H184L187 317Q193 347 210 375L218 387L183 421L208 446L243 412L255 420Q279 436 313 444L327 447ZM345 367Q313 367 290 344Q266 320 266 288Q266 255 290 232Q313 209 345 209Q377 209 401 232Q424 255 424 288Q424 320 401 344Q377 367 345 367ZM345 332Q364 332 377 319Q389 306 389 288Q389 269 377 257Q364 244 346 244Q327 244 314 257Q301 269 301 288Q301 306 314 319Q327 332 345 332Z" fill="currentColor"/>
</svg>
