<svg xmlns="http://www.w3.org/2000/svg" viewBox="0 -802 922 912">
  <path transform="scale(1,-1)" d="M457 802Q357 802 263 755Q172 710 107 630Q41 549 20 451Q0 365 16 276Q32 186 80 109Q128 31 201 -19Q272 -70 360 -90Q447 -110 535 -96Q625 -81 698 -34Q772 11 825 84Q877 156 899 241Q922 329 908 415Q895 505 846 584Q797 663 723 717Q647 773 558 791Q506 802 457 802ZM467 660Q541 660 609 623Q674 587 717 525Q762 462 769 389Q778 319 754 250Q730 180 679 129Q627 76 560 55Q493 33 421 43Q349 53 289 92Q227 132 193 193Q155 257 152 334Q148 411 179 480Q211 552 271 596Q313 628 364 645Q415 661 467 660Z" fill="currentColor"/>
</svg>
