<svg xmlns="http://www.w3.org/2000/svg" viewBox="0 -745 960 790">
  <path transform="scale(1,-1)" d="M308 611Q271 611 246 587Q221 562 220 527Q220 509 230 487Q236 473 245 462Q211 450 188 435Q158 415 143 387L142 385V252H474V385L473 387Q458 415 428 435Q405 450 372 462Q395 485 395 527Q395 562 371 587Q346 611 308 611ZM273 564Q275 564 277 564L281 563Q296 562 305 560Q311 558 317 554L319 553Q324 549 327 548Q333 546 343 546Q355 546 365 551L369 554Q375 542 375 527Q375 505 370 492Q364 477 346 466L348 448Q354 447 364 443Q366 437 366 431Q367 427 367 418Q367 416 366 414L365 413Q356 403 341 398Q326 393 308 393Q290 393 275 398Q260 403 251 413L250 414Q249 416 249 418Q249 427 250 431Q250 437 252 443Q262 447 267 448L269 468L265 471Q255 479 248 496Q241 513 241 527Q241 544 249 560Q252 560 253 561H255Q264 564 273 564ZM230 434Q230 434 230 434Q228 422 229 416Q231 404 237 399Q249 386 268 380Q287 373 308 373Q329 373 348 380Q367 386 379 399Q385 404 387 416Q388 422 386 434Q386 434 386 434Q436 412 454 380V272H406V348H386V272H230V348H209V272H162V380Q181 414 230 434ZM195 745Q142 745 98 719Q53 693 27 649Q0 604 0 551V149Q0 96 27 52Q53 7 98 -19Q142 -45 195 -45H765Q818 -45 863 -19Q908 7 934 52Q960 96 960 149V551Q960 604 934 649Q908 693 863 719Q818 745 765 745ZM195 685H765Q802 685 833 667Q864 649 882 619Q900 588 900 551V149Q900 112 882 82Q864 51 833 33Q802 15 765 15H195Q158 15 127 33Q96 51 78 82Q60 112 60 149V551Q60 588 78 619Q96 649 127 667Q158 685 195 685Z" fill="currentColor"/>
</svg>
