<svg xmlns="http://www.w3.org/2000/svg" viewBox="0 -745 960 790">
  <path transform="scale(1,-1)" d="M195 745Q142 745 98 719Q53 693 27 649Q0 604 0 551V149Q0 96 27 52Q53 7 98 -19Q142 -45 195 -45H765Q818 -45 863 -19Q908 7 934 52Q960 96 960 149V551Q960 604 934 649Q908 693 863 719Q818 745 765 745ZM195 685H765Q802 685 833 667Q864 649 882 619Q900 588 900 551V149Q900 112 882 82Q864 51 833 33Q802 15 765 15H195Q158 15 127 33Q96 51 78 82Q60 112 60 149V551Q60 588 78 619Q96 649 127 667Q158 685 195 685ZM159 613V233H665V613ZM180 482H643V378H300V481H278V378H180ZM180 357H278V255H180ZM300 357H643V255H300ZM182 589V481H643V589Z" fill="currentColor"/>
</svg>
