<svg xmlns="http://www.w3.org/2000/svg" viewBox="0 -803 909 909">
  <path transform="scale(1,-1)" d="M452 802Q364 803 281 768Q198 733 134 670Q69 607 35 527Q1 446 1 357Q0 267 32 184Q64 101 125 39Q184 -24 265 -60Q345 -97 433 -101Q521 -106 602 -76Q686 -47 753 14Q820 75 859 156Q900 239 903 327Q909 414 879 499Q849 582 790 650Q731 717 653 755Q559 802 452 802ZM452 753Q538 754 620 716Q700 679 758 612Q817 544 840 460Q863 381 852 298Q840 214 797 142Q753 68 685 21Q615 -31 525 -47Q437 -62 351 -40Q263 -18 196 39Q129 93 90 173Q52 252 49 339Q46 429 81 507Q111 580 168 636Q225 692 299 723Q373 754 452 753ZM452 550Q428 484 390 350Q351 215 328 150Q351 173 393 221Q432 264 452 285L577 150Q552 228 503 386ZM453 467Q465 431 487 358L521 248L453 322Q445 315 420 286Q402 266 396 259Q386 248 387 254Q398 287 418 354Q440 430 453 467Z" fill="currentColor"/>
</svg>
