<svg xmlns="http://www.w3.org/2000/svg" viewBox="0 -800 911 896">
  <path transform="scale(1,-1)" d="M669 418Q598 470 454 574L239 418L321 165H587Q610 233 653 369ZM641 409Q617 335 569 189H339L267 409Q330 454 454 544Q578 454 641 409ZM458 800Q378 798 331 783Q320 777 320 765Q319 752 328 743Q337 734 349 738Q446 762 545 742Q558 741 565 751Q572 761 569 773Q566 785 554 789Q511 800 458 800ZM708 721Q696 722 689 713Q681 703 683 691Q685 679 696 674Q733 648 765 606Q792 573 818 525Q827 515 839 518Q851 520 858 531Q864 541 858 552Q802 659 719 718Q715 721 708 721ZM187 710Q177 709 166 701Q160 697 149 686L138 675Q91 629 50 554Q41 539 39 528Q36 513 49 505Q61 496 74 504Q86 511 90 526Q127 594 172 641Q176 646 187 655Q198 663 202 668Q210 676 210 686Q210 695 204 702Q197 709 187 710ZM882 397Q867 398 861 385Q854 371 857 356Q860 306 848 256Q836 206 811 161Q807 149 815 140Q822 130 835 130Q847 129 854 139Q885 193 898 256Q911 318 904 380Q902 387 896 392Q889 396 882 397ZM29 378Q14 379 7 366Q0 353 3 338Q8 234 55 142Q62 132 75 133Q87 133 95 143Q102 152 98 164Q53 255 51 358Q50 366 44 372Q37 377 29 378ZM723 44Q714 43 705 37Q699 34 689 25Q676 15 668 11Q614 -25 528 -48Q516 -54 516 -66Q515 -78 524 -87Q533 -96 545 -93Q655 -68 740 4Q747 11 746 21Q745 30 739 37Q732 44 723 44ZM181 43Q170 43 164 34Q157 25 159 14Q160 2 170 -3Q237 -60 333 -86L339 -88Q357 -93 365 -93Q380 -93 387 -80Q393 -68 385 -56Q376 -44 362 -43Q265 -19 206 30L203 33Q197 38 193 40Q187 44 181 43Z" fill="currentColor"/>
</svg>
