<svg xmlns="http://www.w3.org/2000/svg" viewBox="0 -803 918 909">
  <path transform="scale(1,-1)" d="M457 802Q349 803 249 749Q152 696 89 606Q23 513 12 406Q0 314 28 223Q55 132 115 59Q176 -15 259 -55Q338 -95 430 -100Q521 -106 607 -78Q695 -49 761 11Q827 70 867 152Q906 234 912 323Q918 414 888 497Q860 579 802 646Q743 713 665 753Q586 794 500 800H497Q470 802 457 802ZM465 753Q564 754 655 703Q743 653 799 569Q857 482 863 383Q871 295 839 210Q806 124 742 60Q676 -5 592 -32Q511 -60 423 -50Q334 -41 258 1Q180 45 132 116Q81 187 65 277Q49 366 71 452Q93 541 151 607Q209 677 293 716Q376 755 465 753ZM453 709Q362 709 280 659Q200 611 151 531Q101 448 101 357Q99 274 137 197Q175 119 241 66Q310 11 392 -3Q468 -18 546 2Q623 21 685 69Q749 118 783 188Q817 258 819 339Q821 420 790 493Q758 569 698 619Q648 663 584 687Q520 710 453 709ZM467 661Q548 661 621 616Q692 573 733 501Q775 427 772 346Q772 272 736 205Q699 137 638 93Q574 48 500 41Q429 32 359 57Q289 81 238 132Q184 185 164 254Q143 320 153 392Q163 464 202 523Q242 585 303 618Q380 663 467 661Z" fill="currentColor"/>
</svg>
