<svg xmlns="http://www.w3.org/2000/svg" viewBox="0 -716 878 732">
  <path transform="scale(1,-1)" d="M155 716Q113 716 78 696Q42 675 21 640Q0 604 0 562V138Q0 96 21 61Q42 25 78 5Q113 -16 155 -16H724Q766 -16 802 5Q837 25 858 61Q878 96 878 138V562Q878 604 858 640Q837 675 802 696Q766 716 724 716ZM155 668H724Q753 668 778 654Q802 640 816 616Q830 591 830 562V138Q830 109 816 85Q802 60 778 46Q753 32 724 32H608V340H270V32H155Q126 32 102 46Q77 60 63 85Q49 109 49 138V562Q49 591 63 616Q77 640 102 654Q126 668 155 668ZM301 309H577V33H301ZM416 270V247V193H339V147H416V70H462V147H539V193H462V270Z" fill="currentColor"/>
</svg>
