<svg xmlns="http://www.w3.org/2000/svg" viewBox="0 -800 903 894">
  <path transform="scale(1,-1)" d="M451 564Q387 565 332 528Q276 490 253 431Q228 374 240 310Q252 246 295 202Q338 157 401 142Q464 127 522 148Q583 169 624 224Q664 278 665 342Q669 404 635 461Q601 517 544 543Q501 564 451 564ZM451 525Q489 526 525 509Q561 492 587 462Q612 431 622 395Q631 358 624 320Q617 282 596 251Q574 219 542 199Q509 179 469 176Q429 172 392 185Q354 198 326 226Q298 254 285 293Q272 331 277 372Q281 412 303 445Q327 482 367 504Q407 526 451 525ZM506 476Q497 458 477 423L448 369Q439 368 435 361Q430 353 432 345Q434 336 442 333Q446 330 451 331Q455 331 462 334Q468 337 472 337H561V362H472Q490 396 528 464Q514 472 506 476ZM455 800H448H435L429 799H416L403 797H396L357 791V790L344 788L330 784L326 782L323 779L320 775L316 767V758L317 753L319 749L322 745L325 742L334 738L338 737H343L349 739L361 741L367 743L390 747H396L407 749H413L419 750H425L431 751H472L478 750H484L490 749H496L502 748H507L538 743L542 742H547L559 748L562 752L565 755L567 764V769L565 777L559 785L556 787L546 791L507 797H501V798H494L488 799H475L468 800ZM701 721 696 720 692 719 688 716 685 713 682 709 681 705 679 701V696L681 687L683 683L689 677L691 676L693 674L696 673L702 667L707 664L711 660L714 658L722 650H723L737 636L739 633L747 625L749 622L755 616L757 613L761 609V608L762 606L764 604L766 601H767L769 597L772 594L774 590L777 587L782 580L786 573L789 570L793 562L796 559L806 541L811 531L817 523L820 521L829 517H833L842 519L846 521L850 524L853 527L857 535V545L855 552L851 559V560L845 572H844L840 580L837 584L835 588L832 592L830 596L827 600L825 604H824L822 608L814 619V620H813L808 627L805 630L801 636L799 638L795 644L793 646L791 649L786 654L784 657L777 664L775 667L773 669H772L770 672L761 681H760L758 684L756 686L753 688L746 695L743 697L741 699L738 701L736 703H735V704L733 705V706L730 708L728 710L722 714L720 716L710 721H705ZM180 709 175 708 168 704H167L165 702L162 700L160 698L157 696L155 694V693L152 691L150 689L147 687L145 685L142 683V682L138 678H137L135 676V675L133 673L130 671L128 668L124 664H123V663L119 659V658L115 654H114V653L112 651L110 648L108 646L106 643L104 641V640L102 638H101L99 635L97 633V632L95 630L91 624L89 622V621L87 619L83 613L82 610H81L80 607L78 605L75 600L73 598V597L71 595L61 580L60 577L58 575V574L56 572V571L54 569L53 566L49 560L48 557L46 554L45 551L43 548L42 545L40 542L39 539L37 536V535L35 531V522L36 517L40 509L44 506L47 503L61 500L65 501L73 505L77 508L80 511L81 515H82L84 521L87 526L88 529L90 531L92 536V537L94 539L95 542L97 544L98 547L100 549L101 552L103 554L104 557L106 560L108 562L111 567L113 569L114 572L116 574L124 586L126 588L127 591L129 593L131 596L133 598L134 601L138 605L140 608L144 612L145 615L151 621L153 624L163 634L165 637L171 643L174 645L184 655L187 656L193 662L196 664L201 669L204 673L206 677L207 681V690L203 699L197 705L189 709L184 710ZM874 396 870 395 865 393 862 391 856 383 854 379 853 375V371L854 367V316L853 313V304L852 301V295L851 293V287L850 284V281L849 278V275L848 272V269L846 263V261L845 258V255L842 246V244L837 230V227L834 219V218L829 205L826 200L822 189L819 184L817 178L811 168L808 161L807 157V152L809 143L812 139L818 133L822 131L831 129L840 131L844 133L848 136L851 139L853 142L854 145H855L858 151L860 157H861L863 163L866 168V169L869 174L871 181H872L877 196H878L890 234V237L893 247V250H894V253L896 260V263L897 266V270L898 273V276L899 280V283L900 286V290L901 293V300L902 303V317L903 320V364L902 369V378L898 386L895 390L891 392L887 395L879 397ZM21 378 17 377 12 375 9 372 5 369 1 361 0 357V330L1 324V317L4 298V291L6 278H7L10 259L12 253L13 246L17 233L18 227L28 196H29L33 183L36 178V177L38 172V171L41 166V165L43 160V159H44L46 154V153L49 148V147L50 146L52 142L56 138L63 134L72 132L81 134L85 136L89 139L92 142L96 151V160L94 168L90 174L88 180L85 185L83 191L76 207L72 218L71 224L65 241L64 246L62 252L61 258L59 263L51 310V316L50 321V327L49 333V345L48 351V358L47 363L42 370L34 376L26 378ZM715 44 711 43 707 41 698 35 694 31 689 27 679 21 675 17 660 8 655 4 650 1 639 -4 624 -13 618 -15 613 -18 602 -22 597 -25 564 -37 558 -38 547 -42 531 -45 523 -49 519 -52 514 -59 512 -68 514 -77 518 -85 521 -88 525 -91 538 -94 547 -92 553 -90 559 -89 579 -83 584 -81H585L603 -75L609 -72L616 -70L621 -67H622L627 -65H628L633 -62H634L639 -59H640L668 -44H669L680 -38V-37L685 -34H686L691 -31V-30L696 -27H697L702 -23L713 -16L728 -4H729L733 0H734V1L737 4L740 8L742 12L743 16V25L739 33L736 37L732 40L728 42L720 44ZM174 42 170 41 166 38 162 36 159 32 157 28 155 19V15L156 10L158 6L161 2L165 -1V-2L178 -12L180 -14H181L183 -16L186 -18L188 -20H189L191 -22L194 -24L197 -25V-26L208 -33L210 -35H211L219 -40L222 -41V-42L225 -43L230 -46H231L233 -48H234L236 -50H237L239 -51H240L242 -53L245 -54L248 -56H249L251 -57H252L254 -58V-59H255L257 -60L261 -61L264 -63L270 -65L273 -67L286 -71L289 -73L318 -82H320L323 -83V-84L336 -88H340V-89H343L356 -93H365L370 -92L378 -88L383 -81L385 -76L386 -72V-63L382 -55L379 -51L375 -49L371 -46L368 -45H364L356 -42H353L333 -35H331L314 -29H311L302 -26L297 -23L280 -17L278 -15L272 -13L267 -10L264 -9L259 -6L254 -4L249 -1L247 1H246L231 10L229 12L224 15L222 17L220 18H219L215 22L212 23L208 27L191 40L187 41L183 43H178Z" fill="currentColor"/>
</svg>
