<svg xmlns="http://www.w3.org/2000/svg" viewBox="0 -802 903 903">
  <path transform="scale(1,-1)" d="M451 802Q436 802 425 791L10 376Q0 366 0 351Q0 335 10 324L425 -91Q436 -101 452 -101Q467 -101 477 -91L892 324Q903 335 903 351Q903 366 892 376L477 791Q466 802 451 802ZM451 740 841 350 451 -40 61 350ZM442 548 438 547 434 545 432 542 431 538V398L332 497L329 499L325 500L321 499L317 497L304 484L302 480L301 476L302 472L304 469L403 370H263L259 369L256 367L254 363L253 359V341L254 337L256 333L259 331L263 330H403L304 231L302 228L301 224L302 220L304 216L317 203L321 201L325 200L329 201L332 203L431 302V162L432 158L434 155L438 153L442 152H460L464 153L468 155L470 158L471 162V302L570 203L573 201L577 200L581 201L585 203L598 216L600 220L601 224L600 228L598 232L499 330H639L643 331L646 333L649 337V363L646 367L643 369L639 370H499L598 469L600 472L601 476L600 480L598 484L585 497L581 499L577 500L573 499L570 497L471 398V538L470 542L468 545L464 548ZM325 500Q325 500 325 500Q325 500 325 500Z" fill="currentColor"/>
</svg>
