<svg xmlns="http://www.w3.org/2000/svg" viewBox="0 -736 752 772">
  <path transform="scale(1,-1)" d="M134 735Q91 735 54 707Q17 678 6 635Q2 617 0 594Q0 580 1 553Q1 525 0 511V441H50V489Q49 569 51 609Q55 643 82 666Q109 688 141 686H357V735H283Q183 736 134 735ZM449 686H496V735H449ZM588 686Q647 690 675 661Q706 631 702 567V415H752Q752 442 752 498Q752 571 751 608Q749 640 731 669Q713 697 685 715Q656 733 625 734Q616 736 597 735H588ZM0 294H50V343H0ZM702 268H752V317H702ZM0 105Q0 66 23 31Q45 -5 80 -22Q100 -32 127 -34Q143 -36 176 -35Q201 -34 213 -35Q217 -34 228 -35Q237 -36 241 -36Q246 -35 248 -31V14Q232 14 201 14Q146 13 119 16Q88 23 69 50Q49 76 50 109V196H0ZM702 107Q702 84 691 63Q680 42 661 29Q642 15 620 15Q585 14 514 14H479V-35Q499 -35 540 -35Q601 -36 632 -33Q662 -31 689 -12Q716 6 733 35Q750 63 751 95Q752 109 752 138Q752 159 752 170H702ZM340 -35H386V14H340Z" fill="currentColor"/>
</svg>
