<svg xmlns="http://www.w3.org/2000/svg" viewBox="0 -802 904 904">
  <path transform="scale(1,-1)" d="M452 802Q330 802 224 740Q122 680 62 578Q0 472 0 350Q0 228 62 122Q122 20 224 -40Q330 -102 452 -102Q574 -102 680 -40Q782 20 842 122Q904 228 904 350Q904 472 842 578Q782 680 680 740Q574 802 452 802ZM452 753Q562 753 656 698Q747 645 800 554Q855 460 855 350Q855 240 800 146Q747 55 656 2Q562 -53 452 -53Q342 -53 248 2Q157 55 104 146Q49 240 49 350Q49 460 104 554Q157 645 248 698Q342 753 452 753ZM301 540V528V160H603V540ZM325 516H579V184H325ZM351 479V454H553V479ZM351 405V381H553V405ZM351 320V296H553V320ZM351 243V219H553V243Z" fill="currentColor"/>
</svg>
