<svg xmlns="http://www.w3.org/2000/svg" viewBox="0 -802 904 895">
  <path transform="scale(1,-1)" d="M382 545V420H257V280H382V155H522V280H647V420H522V545ZM405 522H499V397H624V303H499V178H405V304H280V397H405ZM452 802H441L435 801H424L419 800H407V799H402L397 798H391L353 791L347 789L337 787L329 783L325 780L323 776L320 772L319 768V759L320 755L322 750L328 744L332 741L341 739H345L388 748H393L402 750H407L412 751H417L422 752H432L437 753H467L472 752H482L487 751H492L497 750H502L512 748H516L540 743H549L554 744L558 746L561 749L565 752L569 760L570 764V769L569 773L565 782L562 785L558 788L551 791L513 798H508L502 799H497V800H486L480 801H469L463 802ZM707 719H702L698 718L693 716L690 714L686 710L682 703L680 694L682 685L690 675L692 674L704 665L711 658L719 652L726 645L730 642L733 638L737 635L740 631L744 628L747 624L754 617L760 609L767 602L782 582L784 578L793 565L795 561L798 557L815 525L819 522L822 519L826 517L835 515L844 517L848 519L852 522L855 525L859 533V542L858 547L856 553L853 558L851 563H850L848 567V568L845 572V573L843 577H842L840 582L822 610H821L812 623L808 627V628L802 636H801L798 640V641L794 645L791 649H790L787 653L779 661V662L775 665V666L772 669H771V670L768 673H767L764 677H763L755 685L751 688V689L747 692L743 696H742L738 699V700L730 706H729L725 710L715 717ZM188 709H183L179 708L171 704L166 700V699L162 696H161L157 692L153 689V688L149 685L137 673L133 670V669L129 666V665L125 662V661L117 653L114 649H113L110 645L106 641V640L103 636L99 632L96 628V627L92 623L83 610H82L67 587L65 582H64L62 577L59 573V572L56 568V567L51 558L49 553H48L44 543L41 538L38 526V522L39 517L41 513L44 509L47 506L55 502L59 501H68L73 503L80 508L85 515L90 527L106 557L112 565L114 569L120 578L122 582L137 602L144 609L150 617L157 624L160 628L164 631L167 635L171 638L174 642L178 645L185 652L193 658L197 662L201 665L208 672L210 677L211 681V685L209 694L207 698L204 702L200 705L192 709ZM452 709H434V708H421L411 706L406 704L399 699L393 687V682L395 673L397 669L400 666L408 660L416 658H420L421 659H429L433 660H471L475 659H483L486 658H490L494 657H498L505 655H509L517 653H520L546 646L549 644L557 642L564 639L571 637L574 635L583 633H588L592 634L596 636L600 639L603 642L607 650L608 655V664L604 672L601 675L594 680H593L590 682L585 683L581 685L577 686L573 688L569 689L565 691L556 693L552 695L514 704H510L501 706H496L492 707H488L483 708H470V709ZM297 670H293L285 668L279 665L272 660H271L268 658L260 654V653L257 651H256L235 636L232 633H231L228 631V630L225 628H224L215 619H214L202 607H201L192 598V597L183 588L180 584L177 581L175 578H174V577L172 574L169 571V570L166 567L158 556L154 549H153L149 542L147 533L149 524L151 520L154 517L157 513L165 509L169 508H174L178 509L187 513L190 516L198 528L201 531L203 535L207 541L210 544L212 547L215 549L217 552L220 555L222 558L225 561L227 564L230 567L233 569L236 572L238 575L241 577L244 580L247 582L250 585L253 587L256 590L259 592L262 595L268 599L271 602L306 624H308L311 627L315 630L319 638L321 647L319 656L314 663L310 666L302 670ZM690 611 685 610 677 608 673 605 670 602 667 598 664 585 665 580 671 569 674 567 677 564 679 561 682 558 684 555 687 552 689 549 692 547 694 544 697 541 704 531 726 496 727 493 731 486 732 483 736 476 737 472 743 458 746 447 748 444 750 437V434L754 426L758 423L761 420L765 418L770 417H779L783 418L787 421L791 423L794 427L798 435V444L797 448V450L795 454L793 463L791 467L790 471L788 475L787 479L785 483L784 488L782 491V492L780 495V496L778 499L777 503L776 504L775 507L767 523H766L765 527H764L762 530V531L760 534L756 542H755L753 545V546L746 556V557L743 560L741 563V564H740L738 567L735 570V571L733 574H732L730 577V578L724 584L721 588L712 597V598L709 601L706 603L703 606L699 609ZM126 440H121L117 439L109 435L106 431L103 428L101 424L99 416V412H98V408L96 399V394L95 390V381H94V368L93 364V337L94 332V319H95V310L96 306V302L98 293V289L99 288V284L107 250L109 246L110 241L111 240L112 236L115 232L118 229L122 226L126 224L130 223H135L144 225L148 227L151 230L154 234L158 242V251L157 256L155 260L150 278V282L147 293V297L145 304V308L144 312V319L143 323V331L142 335V365L143 369V377L144 381V388L145 392V396L147 403V407L148 411V420L147 424L145 428L142 432L139 435L130 439ZM880 394H875L871 393L863 389L857 381L855 377V373L854 369L855 365V335L854 330V320L853 315V310L852 305V300L850 291V286L842 247L840 242L839 238L837 233L835 224L831 214L830 210L808 160L807 156V151L808 147L812 139L815 135L827 129H832L841 131L845 133L851 139L856 147L860 157L863 162L873 187V188L875 192V193L883 213L884 219L886 224L887 229L889 234L891 245L893 251L900 289V294L901 300V305H902V316L903 322V333L904 339V361L903 367V376L899 384L896 387L892 390L884 394ZM27 378H22L14 376L6 370L2 362L0 354V345L1 339V322L2 317V311L3 306V300L5 289V284L11 251L13 245L15 234L17 229L18 224L22 214L23 208L29 193V192L31 188V187L41 162L44 157L48 147H49V146L52 142L58 136L62 134L67 133H76L80 134L84 137L88 139L91 143L95 151V160L93 168L92 169L74 210L73 214L71 219L70 224L68 228L67 233L65 238L63 247L61 252L54 286V291L52 300V305L51 310V315L50 320V330L49 335V358L48 363L46 367L39 374L36 376L31 378ZM783 321H779L774 320L770 318L766 315L763 312L759 304L757 297V293L755 286V282L748 256L746 253L743 242L738 231L736 224L732 218L731 214L729 211L726 204L714 184L704 169L701 166L697 159L695 158L691 150L690 145V141L691 136L695 128L698 125L702 122L706 120L715 118L723 120L728 122L735 129V130L738 133L753 154V155L755 158H756L762 169V170L767 177L775 193L776 197H777L778 201L784 213L785 217L787 221L788 225L790 229L791 233L793 237L795 246L797 250L806 288V293L807 298L805 306L803 310L800 314L796 317L788 321ZM193 161 189 160 181 156 177 153 174 150 172 146 170 137 172 128 177 119 183 113V112L195 100V99L201 93H202L214 81H215L221 75L228 70L231 67H232L235 64L238 62H239V61L246 57V56L253 52V51L256 49H257L264 44L271 40H272L275 38H276L279 36V35L283 34V33L291 29L295 28V27L299 26L311 20L315 19V18L319 17L323 15L327 14H336L340 15L344 17L348 20L353 27L355 32L356 36V41L355 45L351 53L347 56L344 59L323 68L320 70L316 71L306 77L299 80L274 96L271 99L261 105L259 108L256 110L253 113L250 115L247 118L244 120L241 123L238 125L236 128L230 134L227 136L225 139L222 142L220 145L217 148L215 151L207 158ZM619 84H614L610 83L606 81L605 80L598 77L588 71L560 59L549 56L542 53L524 48H520L509 45H505L498 43H494L490 42H483L479 41H471L467 40H451L443 36L439 33L436 30L434 26L432 17V12L433 8L437 0L441 -3L444 -6L448 -8L453 -9H465L470 -8H483L487 -7H492L496 -6H501L509 -4H514L552 5L556 7L565 9L569 11L573 12L577 14L581 15L585 17L589 18L590 19L594 20L597 22H598L601 24H602L605 26L609 27V28L613 29L621 33V34L625 35V36L634 41L638 45L640 48L642 53L643 57V62L641 70L635 78L632 81L628 83L623 84ZM179 45 175 44 170 43 166 40 160 34 158 30 156 21V16L157 12L159 8L162 4L165 2L170 -3L174 -6H175L179 -10L192 -19V-20L201 -26H202L215 -35H216L220 -38L225 -40V-41L230 -43L234 -46H235L239 -48V-49L244 -51L249 -54L259 -58L264 -61L289 -71H290L294 -73H295L315 -81L321 -82L326 -84L331 -85L336 -87L347 -89L357 -92H366L371 -91L375 -89L379 -86L382 -83L386 -75L387 -70V-66L385 -57L382 -53L379 -50L375 -47L368 -44L349 -40L344 -38L340 -37L335 -35L330 -34L326 -32L321 -31L316 -29L312 -28L275 -12L245 4L237 10L233 12L229 15L220 20L208 29L205 32L192 42ZM722 42H717L713 41L708 39L705 37L704 35L684 20L680 18L676 15L667 10L659 4L637 -8L593 -28L588 -29L583 -31L579 -32L574 -34L569 -35L564 -37L560 -38L555 -40L528 -46L524 -48L518 -54L514 -63L513 -67V-72L514 -76L516 -80L519 -84L522 -87L526 -90L530 -92L534 -93H543L546 -92L552 -91L557 -89L568 -87L573 -85L578 -84L583 -82L589 -81L609 -73H610L640 -61L645 -58L655 -54L660 -51L665 -49V-48L669 -46H670L674 -43H675L679 -41V-40L684 -38L712 -20V-19L725 -10L729 -6H730L734 -3L739 2L742 6L744 10L745 14V19L743 28L741 32L738 35L734 38L726 42Z" fill="currentColor"/>
</svg>
