<svg xmlns="http://www.w3.org/2000/svg" viewBox="0 -802 909 898">
  <path transform="scale(1,-1)" d="M454 550Q430 484 392 350Q353 215 330 150Q353 173 395 221Q434 264 454 285L579 150Q554 228 505 386ZM455 467Q467 431 489 358L523 248L455 322Q447 315 422 286Q404 266 398 259Q388 248 389 254Q400 287 420 354Q442 430 455 467ZM454 802Q380 800 333 784Q321 778 321 766Q320 753 330 745Q339 736 351 740Q445 765 547 743Q559 742 566 752Q573 761 571 774Q568 786 556 790Q507 802 454 802ZM709 719Q697 720 690 711Q682 701 684 689Q685 677 696 672Q772 616 817 525Q824 515 837 516Q849 516 857 526Q864 535 860 547Q836 597 800 641Q763 685 717 717Q713 719 709 719ZM190 709Q179 708 169 701Q163 696 152 685Q144 677 139 673Q74 611 41 531Q37 519 46 510Q54 501 66 501Q78 501 85 512Q126 605 207 669Q213 676 213 686Q212 695 206 702Q199 709 190 709ZM454 709Q450 709 440 708Q422 708 415 706Q402 702 398 692Q393 681 398 673Q402 664 412 660Q422 656 431 659Q509 665 580 634Q592 630 601 639Q610 647 610 660Q610 672 599 678Q533 709 454 709ZM299 670Q286 668 272 660Q263 655 247 643L237 636Q176 588 151 540Q146 528 155 519Q163 509 176 509Q188 508 194 519Q235 583 315 629Q323 636 323 646Q323 655 316 663Q309 670 299 670ZM692 611Q680 612 673 603Q666 594 667 583Q668 571 678 565Q730 512 755 428Q762 417 775 417Q787 417 795 427Q803 436 799 448Q773 541 705 606Q701 609 692 611ZM128 440Q103 442 98 399Q87 313 114 236Q120 225 132 224Q144 222 153 231Q162 239 160 251Q134 331 150 415Q151 425 144 432Q137 439 128 440ZM882 394Q867 395 861 382Q854 369 857 355Q858 254 810 160Q806 148 814 139Q822 130 834 130Q846 129 853 139Q882 193 896 254Q909 314 905 376Q903 384 896 389Q889 394 882 394ZM29 378Q14 379 7 366Q0 353 3 339Q5 232 54 142Q61 132 74 133Q86 134 94 144Q101 153 96 165Q49 256 51 358Q50 366 44 372Q37 377 29 378ZM785 321Q770 322 763 309Q758 299 757 282Q744 219 694 152Q688 140 696 130Q703 120 716 119Q728 117 736 128Q765 166 784 210Q803 253 809 298Q808 307 802 314Q795 321 785 321ZM195 161Q184 161 178 153Q172 144 173 133Q174 122 182 116Q245 43 329 14Q341 11 350 20Q358 29 358 41Q357 53 346 59Q267 89 212 155Q206 161 195 161ZM621 84Q609 81 588 71Q566 60 555 57Q536 50 511 46Q496 43 466 40L449 38Q437 34 435 22Q432 10 440 0Q447 -10 459 -9Q506 -8 552 5Q597 17 636 41Q644 48 645 59Q645 69 639 77Q632 84 621 84ZM181 45Q170 45 164 36Q157 26 159 15Q160 4 170 -1Q213 -35 263 -58Q312 -82 364 -92Q376 -93 383 -83Q390 -73 388 -61Q385 -49 373 -45Q273 -24 194 42Q188 45 181 45ZM724 42Q715 41 706 36Q701 33 691 24Q677 13 669 10Q639 -10 601 -25Q570 -37 528 -47Q517 -53 516 -65Q515 -78 524 -87Q532 -96 545 -93Q599 -82 650 -57Q700 -33 741 2Q748 9 747 19Q746 28 740 35Q733 42 724 42Z" fill="currentColor"/>
</svg>
