<svg xmlns="http://www.w3.org/2000/svg" viewBox="0 -751 781 793">
  <path transform="scale(1,-1)" d="M398 750Q384 750 372 743Q360 736 353 724Q342 704 339 671Q336 643 337 580L338 540V473Q332 486 324 509L323 512L314 535Q302 567 295 582Q284 607 273 623Q256 648 237 657Q214 668 185 657V656Q160 645 153 615Q150 596 157 561Q162 539 178 490Q190 452 195 433Q203 406 216 356L222 333L209 345Q193 360 184 368Q145 402 109 416Q87 424 68 423Q45 421 29 407Q0 380 5 350Q7 326 32 294Q46 277 82 240Q127 194 150 166Q178 133 235 45Q274 -14 290 -35L295 -42H627L630 -30Q634 -17 644 29L656 84Q676 178 703 249L714 277Q738 336 748 364Q764 409 771 440Q781 484 775 510Q771 525 759 537Q747 548 730 551Q716 554 702 549Q688 543 678 532Q660 515 645 480Q639 470 630 446L624 430V505Q624 522 624 559Q625 613 623 636Q619 670 611 687Q605 698 595 706Q584 713 572 713Q559 713 548 708Q537 702 530 693Q517 676 510 649Q504 627 497 578L491 542L482 495L476 546L473 578Q468 644 461 674Q454 709 442 725Q435 737 424 744Q412 751 399 750H400ZM398 717Q399 717 399 717H400Q405 717 408 715Q410 713 414 707Q421 695 428 667Q434 638 441 567L443 542Q449 486 457 430L465 386L498 387L524 536L530 571Q537 620 542 640Q549 663 556 672Q560 677 563 678Q565 679 570 679H572Q576 679 577 679Q578 678 580 675L581 672Q587 661 589 633Q591 608 590 544V505L591 345L623 338Q633 359 651 406Q667 448 675 466Q689 496 702 509Q712 519 724 518Q733 517 737 514Q741 510 743 501Q747 482 738 447Q732 423 719 385Q711 363 691 312L672 261Q648 201 623 91Q618 68 609 29L601 -8H312Q298 10 265 62Q207 151 176 188Q152 217 106 263Q71 300 59 315Q40 339 38 353Q37 361 40 367Q43 373 52 381Q60 389 71 390Q82 390 97 385Q128 372 162 342Q190 319 219 287L242 260L271 275L258 329Q242 392 228 442Q222 464 209 505Q194 550 190 568Q184 594 187 609Q188 616 191 620Q193 623 199 626Q212 632 223 627Q233 622 245 604Q256 588 268 558Q276 540 291 500Q301 474 321 426L338 383L370 389L371 439Q373 498 372 540L371 570Q369 640 372 668Q375 693 382 707Q386 713 389 715Q392 717 398 717Z" fill="currentColor"/>
</svg>
