<svg xmlns="http://www.w3.org/2000/svg" viewBox="0 -802 918 908">
  <path transform="scale(1,-1)" d="M451 802Q343 802 244 747Q148 693 85 602Q21 509 11 402Q0 310 29 219Q57 127 118 56Q180 -18 264 -57Q342 -95 432 -100Q522 -106 605 -78Q692 -49 756 10Q823 67 863 148Q903 228 911 316Q918 407 889 490Q862 575 802 645Q741 714 660 755Q577 797 488 801Q475 802 451 802ZM460 660Q539 662 611 621Q682 581 725 512Q769 441 770 362Q773 289 741 221Q709 152 652 106Q592 57 520 45Q450 31 378 52Q306 72 251 120Q194 169 169 237Q144 304 152 380Q160 455 198 517Q238 582 302 617Q337 638 378 649Q419 660 460 660ZM293 506Q379 437 464 368Q520 414 634 506ZM255 474Q255 334 255 194H665V468L464 305Z" fill="currentColor"/>
</svg>
