<svg xmlns="http://www.w3.org/2000/svg" viewBox="0 -800 910 894">
  <path transform="scale(1,-1)" d="M454 562Q358 390 262 217H646ZM454 511Q554 331 605 241H303Q354 331 454 511ZM458 800Q446 798 418 798Q377 797 359 792Q329 784 319 761Q327 741 347 739Q359 738 387 745Q404 750 412 751Q426 753 435 751Q460 753 511 747Q540 744 554 743Q576 764 565 778Q555 790 527 796Q503 800 482 799Q474 800 458 800ZM708 721Q676 711 687 690Q693 677 723 651Q737 639 742 634Q784 587 818 525Q838 512 849 522Q859 531 857 551Q855 571 841 582Q783 677 714 720ZM187 710Q158 698 131 669Q115 652 88 614L74 595Q61 582 50 558Q38 532 41 517Q45 498 74 504Q87 520 109 556Q125 584 135 597Q150 619 166 634L179 646Q204 668 209 680Q217 700 187 710ZM882 397Q862 392 857 372Q855 361 857 332Q858 316 858 308Q857 295 854 286Q843 221 811 161Q809 144 817 137Q825 130 837 132Q849 134 859 144Q868 153 868 167Q891 217 901 272Q910 326 904 380Q902 387 896 392Q889 396 882 397ZM29 378Q6 373 2 348Q0 334 7 300Q11 277 11 268Q22 223 30 199Q43 161 62 135Q96 130 96 155Q96 170 80 207Q72 227 70 234Q51 297 51 358Q50 366 44 372Q37 377 29 378ZM723 44Q704 35 668 12Q638 -6 623 -15Q597 -28 574 -34Q557 -34 539 -44Q520 -55 517 -68Q513 -83 536 -94Q591 -84 644 -58Q696 -34 740 4Q747 11 746 21Q745 30 739 37Q732 44 723 44ZM181 43Q155 33 160 15Q164 1 186 -17Q203 -30 222 -40Q301 -84 369 -93Q392 -82 388 -67Q385 -55 367 -44Q348 -34 331 -34Q251 -10 195 39L189 42Z" fill="currentColor"/>
</svg>
