<svg xmlns="http://www.w3.org/2000/svg" viewBox="0 -681 680 661">
  <path transform="scale(1,-1)" d="M340 681Q215 681 121 661Q73 650 42 634Q8 617 1 591L0 587V112Q6 86 42 66Q74 49 121 40Q208 20 340 20Q472 20 559 40Q606 49 638 66Q673 85 680 112V587Q680 590 679 591Q672 617 638 634Q607 650 559 661Q465 681 340 681ZM340 646Q463 646 552 626Q595 617 621 604Q638 595 644 585Q638 575 621 566Q596 552 552 543Q460 524 340 524Q220 524 128 543Q84 552 59 566Q42 575 36 585Q42 595 59 604Q85 617 128 626Q217 646 340 646ZM35 539Q36 539 39 537L42 535Q69 521 121 509Q215 489 340 489Q465 489 559 509Q611 521 638 535L645 539V498Q641 487 621 477Q596 463 552 454Q460 435 340 435Q220 435 128 454Q84 463 59 477Q39 488 35 498ZM35 450Q36 450 39 448L42 446Q69 432 121 420Q215 400 340 400Q465 400 559 420Q611 432 638 446L645 450V409Q641 398 621 388Q596 374 552 365Q460 346 340 346Q220 346 128 365Q84 374 59 388Q39 399 35 409ZM35 361Q36 361 39 359L42 357Q69 343 121 331Q208 311 340 311Q472 311 559 331Q611 343 638 357L645 361V118Q641 107 621 97Q596 83 552 74Q467 55 340 55Q213 55 128 74Q84 83 59 97Q39 108 35 118Z" fill="currentColor"/>
</svg>
