<svg xmlns="http://www.w3.org/2000/svg" viewBox="0 -716 878 732">
  <path transform="scale(1,-1)" d="M154 716Q112 716 77 696Q41 675 21 640Q0 604 0 562V138Q0 96 21 61Q41 25 77 5Q112 -16 154 -16H724Q766 -16 802 5Q837 25 858 61Q878 96 878 138V562Q878 604 858 640Q837 675 802 696Q766 716 724 716ZM154 668H724Q753 668 778 654Q802 640 816 616Q830 591 830 562V138Q830 109 816 85Q802 60 778 46Q753 32 724 32H154Q125 32 101 46Q77 60 63 85Q49 109 49 138V562Q49 591 63 616Q77 640 101 654Q125 668 154 668Z" fill="currentColor"/>
</svg>
