<svg xmlns="http://www.w3.org/2000/svg" viewBox="0 -802 903 903">
  <path transform="scale(1,-1)" d="M451 802Q436 802 425 791L10 376Q0 366 0 351Q0 335 10 324L425 -91Q436 -101 452 -101Q467 -101 477 -91L892 324Q903 335 903 351Q903 366 892 376L477 791Q466 802 451 802ZM451 740 841 350 451 -40 61 350ZM305 523Q303 523 301 522L297 519L282 504L279 500L278 496L279 491L282 487L419 350L282 213L279 209L278 204L279 200L282 196L297 181L301 178L305 177L310 178L314 181L451 318L588 181L592 178L597 177L601 178L605 181L620 196L623 200L624 204L623 209L620 213L483 350L620 487L623 491L624 496L623 500L620 504L605 519L601 522L597 523L592 522L588 519L451 382L314 519V520L310 522Z" fill="currentColor"/>
</svg>
