<svg xmlns="http://www.w3.org/2000/svg" viewBox="0 -718 878 736">
  <path transform="scale(1,-1)" d="M200 669Q225 669 249 669V718H200ZM298 669Q323 669 347 669V718H298ZM395 669Q420 669 444 669V718H395ZM493 669Q518 669 542 669V718H493ZM591 669Q616 669 640 669V718H591ZM688 669Q692 669 699 669Q723 670 734 668L740 716Q729 718 708 718H688ZM157 718Q144 718 132 715L141 667Q144 668 151 668Q158 668 161 670Q164 672 161 680Q160 684 161 695Q162 705 162 709Q161 716 157 718ZM771 655Q789 646 802 630Q807 634 817 643Q834 655 839 662Q819 685 795 698ZM78 695Q54 680 35 658Q40 654 51 645Q67 632 74 628Q90 646 104 653L94 669Q84 687 78 695ZM837 601Q826 600 825 595Q823 590 827 579Q829 577 829 570Q828 562 829 559Q830 556 835 556Q840 556 853 556Q871 556 878 557Q878 587 868 613ZM7 605Q0 581 0 552H49Q48 571 54 592L8 607ZM829 458Q854 458 878 458V507H829ZM0 454Q25 454 49 454V503H0ZM829 361Q854 361 878 361V410H829ZM0 356Q25 356 49 356V405H0ZM829 263Q854 263 878 263V312H829ZM0 259Q25 259 49 259V308H0ZM829 165Q854 165 878 165V214H829ZM0 161Q25 161 49 161V210H0ZM827 121Q822 99 813 84Q819 81 830 74Q847 63 855 60Q870 85 875 112L859 115Q837 120 827 121ZM4 107Q10 79 27 54L67 81Q56 99 52 118ZM784 53Q767 41 750 36Q755 24 763 -1L766 -10Q793 -3 816 16L786 55ZM66 13Q93 -5 118 -12L123 6Q128 26 130 35Q111 41 95 53L88 44Q74 23 66 13ZM173 -18Q198 -18 222 -18V31H173ZM270 -18Q295 -18 319 -18V31H270ZM368 -18Q393 -18 417 -18V31H368ZM466 -18Q490 -18 514 -18V31H466ZM560 -18Q585 -18 609 -18V31H560ZM661 -18Q686 -18 710 -18V31H661ZM608 -3Q608 169 608 340H270V-3ZM301 309Q439 309 577 309V32H301ZM338 199Q338 176 338 152H541V199Z" fill="currentColor"/>
</svg>
