<svg xmlns="http://www.w3.org/2000/svg" viewBox="0 -802 922 912">
  <path transform="scale(1,-1)" d="M460 802Q459 802 457 802Q358 802 264 756Q173 711 109 633Q43 553 21 456Q0 370 15 281Q30 191 76 114Q123 36 195 -15Q267 -68 356 -89Q445 -110 534 -96Q626 -81 701 -33Q775 13 827 86Q879 158 900 244Q922 331 909 418Q895 504 848 582Q801 659 729 713Q656 768 570 788Q514 802 460 802ZM455 753Q460 753 465 753Q557 754 643 709Q727 666 784 590Q842 513 857 422Q873 340 852 256Q831 172 779 104Q726 34 652 -5Q576 -47 486 -52Q396 -57 313 -25Q228 8 169 72Q108 135 79 222Q51 306 60 395Q70 486 116 560Q169 647 261 700Q353 752 455 753ZM463 709Q458 709 453 709Q369 709 290 666Q215 624 165 552Q113 479 104 395Q93 316 120 238Q147 159 203 100Q261 40 337 13Q409 -14 488 -7Q566 -1 635 36Q705 74 750 137Q798 201 813 283Q828 364 808 443Q787 525 733 584Q682 642 611 676Q540 709 463 709ZM461 661Q464 661 467 661Q542 661 611 622Q678 584 721 520Q765 455 771 380Q779 309 752 240Q724 170 671 120Q615 68 546 50Q478 30 407 44Q335 57 276 100Q217 142 185 204Q151 268 150 343Q149 418 180 484Q213 553 271 596Q311 627 361 644Q410 661 461 661ZM310 540V528V160H612V540ZM334 516H588V184H334ZM360 479V454H562V479ZM360 405V381H562V405ZM360 320V296H562V320ZM360 243V219H562V243Z" fill="currentColor"/>
</svg>
