<svg xmlns="http://www.w3.org/2000/svg" viewBox="0 -802 904 904">
  <path transform="scale(1,-1)" d="M452 802Q330 802 224 740Q122 680 62 578Q0 472 0 350Q0 228 62 122Q122 20 224 -40Q330 -102 452 -102Q574 -102 680 -40Q782 20 842 122Q904 228 904 350Q904 472 842 578Q782 680 680 740Q574 802 452 802ZM452 753Q562 753 656 698Q747 645 800 554Q855 460 855 350Q855 240 800 146Q747 55 656 2Q562 -53 452 -53Q342 -53 248 2Q157 55 104 146Q49 240 49 350Q49 460 104 554Q157 645 248 698Q342 753 452 753ZM448 564Q385 564 331 527Q277 490 254 431Q229 374 241 310Q253 246 296 202Q339 157 402 142Q465 127 523 148Q584 169 625 224Q665 278 666 342Q670 404 636 461Q602 517 545 543Q502 564 452 564ZM456 525Q493 525 528 508Q563 490 588 460Q613 430 623 394Q632 358 625 320Q618 282 597 251Q575 219 543 199Q510 179 470 176Q430 172 393 185Q355 198 327 226Q299 254 286 293Q273 331 278 372Q282 412 304 445Q328 482 368 504Q408 526 452 525ZM507 476Q498 458 478 423L449 369Q440 368 436 361Q431 353 433 345Q435 336 443 333Q447 330 452 331Q456 331 463 334Q469 337 473 337H562V362H473Q491 396 529 464Q515 472 507 476Z" fill="currentColor"/>
</svg>
